<?xml version="1.0" encoding="utf-8"?>
<!-- Generator: Adobe Illustrator 22.0.1, SVG Export Plug-In . SVG Version: 6.00 Build 0)  -->
<svg version="1.1" id="Lager_1" xmlns="http://www.w3.org/2000/svg" xmlns:xlink="http://www.w3.org/1999/xlink" x="0px" y="0px"
	 viewBox="0 0 1920 1080" style="enable-background:new 0 0 1920 1080;" xml:space="preserve">
<style type="text/css">
	.st0{opacity:0.35;fill:#0000FF;}
	.st1{opacity:0.5;fill:#0000FF;}
	.st2{opacity:0.3;fill:#F2F2F2;}
	.st3{fill:#2E3192;}
	.st4{fill:#FFFFFF;}
	.st5{fill:#E6E6E6;}
	.st6{opacity:0.9;}
	.st7{fill:#1B1464;}
	.st8{fill:#B3B3B3;}
	.st9{opacity:0.11;}
	.st10{fill:#FFFFFF;stroke:#FFFFFF;stroke-miterlimit:10;}
	.st11{opacity:0.1;fill:#F2F2F2;}
	.st12{opacity:0.31;fill:#F2F2F2;}
	.st13{fill:#662D91;}
	.st14{fill:#999999;}
	.st15{opacity:0.5;}
</style>
<g id="bg">
	<path class="st0" d="M1169,760.1c25.1,26.2,7.7,77.1-24.9,72.6c-99-13.7-89.4-22.1-266.2,19c-288.3,67-425.9-228.4-556.6-399.8
		C210.8,307.3-9.4,352.2-75.4,369.7c-12,3.2-24.3-2.1-32.2-13.7l-25.6-37.8c-6-8.9-8.7-20.5-7.5-32.1l14.7-135.3
		c3.1-28.9,28.6-44.7,49-30.4c163.8,115.1,508.2,337.7,714,331.5C809.5,446.7,1025,609.9,1169,760.1z"/>
	<path class="st0" d="M1150,471.4c65.2,39.7,259.9,87,431.1,105.6c19.6,2.1,29.1,31,16.3,49.7c-81.5,118.4-178.2,228.2-314.9,219.5
		l0,0c-7.7-0.5-14.7-5.5-18.9-13.4c-68.3-128.2-197.6-305.3-413.1-378C495,334.9,1053.9,412.9,1150,471.4z"/>
	<path class="st0" d="M2122.4,152.4c-85.1,191.4-176,130.9-319.1,210.3c-32.5,18-63.5,53.6-95.1,97.6c-6.2,8.6-15.6,12.2-24.6,9.5
		c-93.6-28.9-208.2-75.3-308.9-147.5c-215.7-154.6-482.9-124-653.9-130.9C559.3,184.9,268.2,83.9,236.3,72.7
		c-1.9-0.7-3.9-1.1-5.9-1.1L-88.2,57.2c-14.7-0.7-25.8-17-23.8-35.2l0,0C-110.4,6.5-99.8-5-87.3-5H2074c2,0,3.9-0.3,5.8-0.8
		C2098.4-11.3,2206.4-36.5,2122.4,152.4z"/>
	<path class="st1" d="M850.4,454.7c209.2,70.5,337.1,239.5,407,366.6c5.4,9.8-0.7,23.1-10.2,22.3c-0.1,0-0.2,0-0.3,0
		c-2.7-0.2-5.3-1.7-7.3-4.1c-135-164.8-398.8-393.8-602.7-387.6C414.6,458.6,30.6,198.3-112.8,95c-4-2.9-6.2-8.5-5.6-14.3l1.3-11.9
		c0.8-7.3,5.9-12.6,11.8-12.4l337.4,15.2c0.9,0,1.8,0.2,2.7,0.5c22.3,7.9,321.4,112.6,486,119.3c171,7,438.2-23.7,653.9,130.9
		c99.6,71.4,212.7,117.5,305.7,146.5c8.2,2.6,11.5,15,6,23.1c-17.8,26.4-36,54.9-54.9,83.7c-2.3,3.6-5.9,5.5-9.6,5.2
		c-179.8-14.8-401.4-66.6-471.8-109.5C1053.9,412.9,495,334.9,850.4,454.7z"/>
</g>
<g id="Lager_4">
</g>
<g id="Lager_3">
</g>
<g>
	<path class="st2" d="M1252.8,617.7l43.6-51.1c3.5-4.1,1.3-10.5-4-11.6l-77.9-16.1c-1.7-0.3-2.4,2-0.8,2.7l0,0
		c1.6,0.6,0.9,3-0.8,2.7l-1-0.2c-0.5-0.1-1,0.1-1.3,0.4l-32.8,37.1c-4.2,4.7-2.1,12.2,3.9,14L1252.8,617.7"/>
	<path class="st2" d="M1324.8,484.4l21.9,2.1c5.2,0.5,8.5,5.7,6.9,10.6l-29.5,89.2c-0.4,1.3-1.8,2-3.2,1.6l-53.8-18.3
		c-0.2-0.1-0.4-0.2-0.6-0.3l0,0c-1.2-0.8-1.5-2.4-0.7-3.5l56.6-80.3C1323,484.7,1323.9,484.3,1324.8,484.4z"/>
	<g>
		<path class="st3" d="M1211.7,478l-42.8,102.9c-0.5,1.2,0.1,2.5,1.2,3l80.8,33.6c1.2,0.5,2.5-0.1,3-1.2l42.8-102.9
			c0.5-1.2-0.1-2.5-1.2-3l-80.8-33.6C1213.5,476.3,1212.2,476.9,1211.7,478z"/>
		<path class="st4" d="M1235.3,604L1235.3,604c7.7,3.2,16.5-0.4,19.6-8.1v0c3.2-7.7-0.4-16.5-8.1-19.6l0,0
			c-7.7-3.2-16.5,0.4-19.6,8.1l0,0C1224,592,1227.7,600.8,1235.3,604z"/>
		<path class="st5" d="M1200.9,504.1l-28.9,69.5c-2.2,5.2,0.3,11.3,5.6,13.5l18.3,7.6c-2.3-4.7-1.4-10.3,10-14.4
			c24.1-8.5-1.3-20.7-11.1-22.7s-3.8-9.8,13.1-10.6c16.8-0.8,5.5-13.3-9.1-13.7c-14.7-0.3-3-11.6,12-11.9
			C1223,521,1218.4,505.6,1200.9,504.1z"/>
	</g>
	<g class="st6">
		<path class="st3" d="M1240,590.6l76.4,1c4.3,0.1,7.9-3.4,7.9-7.7l1.3-100.3c0.1-4.3-3.4-7.9-7.7-7.9l-76.4-1
			c-4.3-0.1-7.9,3.4-7.9,7.7l-1.3,100.3C1232.2,587,1235.7,590.5,1240,590.6z"/>
		<path class="st7" d="M1233.6,476.5l-0.5,42.1l92,1.2l0.5-41.4c0-1.5-1.2-2.7-2.6-2.7l-87.4-1.1
			C1234.5,474.5,1233.6,475.4,1233.6,476.5z"/>
		<path class="st4" d="M1244.6,583.8l24.7,0.3c3,0,5.5-2.4,5.6-5.4l0,0c0-3-2.4-5.5-5.4-5.6l-24.7-0.3c-3,0-5.5,2.4-5.6,5.4v0
			C1239.1,581.3,1241.6,583.8,1244.6,583.8z"/>
		<path class="st8" d="M1284.9,584.3l24.7,0.3c3,0,5.5-2.4,5.6-5.4l0,0c0-3-2.4-5.5-5.4-5.6l-24.7-0.3c-3,0-5.5,2.4-5.6,5.4l0,0
			C1279.4,581.8,1281.9,584.3,1284.9,584.3z"/>
		<g>
			<path class="st9" d="M1289.3,507.9L1289.3,507.9c3,0,5.5-2.4,5.6-5.4l0,0c0-3-2.4-5.5-5.4-5.6l0,0c-3,0-5.5,2.4-5.6,5.4l0,0
				C1283.8,505.4,1286.3,507.9,1289.3,507.9z"/>
			<path class="st9" d="M1240.5,486.4L1240.5,486.4c3,0,5.5-2.4,5.6-5.4l0,0c0-3-2.4-5.5-5.4-5.6l0,0c-3,0-5.5,2.4-5.6,5.4v0
				C1235,483.8,1237.5,486.3,1240.5,486.4z"/>
			<path class="st9" d="M1318.7,591.6L1318.7,591.6c3,0,5.5-2.4,5.6-5.4v0c0-3-2.4-5.5-5.4-5.6l0,0c-3,0-5.5,2.4-5.6,5.4l0,0
				C1313.2,589,1315.6,591.5,1318.7,591.6z"/>
			<path class="st9" d="M1239.6,557.1L1239.6,557.1c3,0,5.5-2.4,5.6-5.4v0c0-3-2.4-5.5-5.4-5.6l0,0c-3,0-5.5,2.4-5.6,5.4l0,0
				C1234.1,554.6,1236.6,557.1,1239.6,557.1z"/>
		</g>
		<polygon class="st10" points="1241,537.2 1316.3,538.1 1316.3,538.1 1241,537.2 		"/>
		<path class="st4" d="M1295.3,564.3l8.3,0.1c1.3,0,2.3-1,2.4-2.3l0.1-8.3c0-1.3-1-2.3-2.3-2.4l-8.3-0.1c-1.3,0-2.3,1-2.4,2.3
			l-0.1,8.3C1293,563.2,1294,564.3,1295.3,564.3z"/>
		<path class="st4" d="M1280.5,564.1l8.3,0.1c1.3,0,2.3-1,2.4-2.3l0.1-8.3c0-1.3-1-2.3-2.3-2.4l-8.3-0.1c-1.3,0-2.3,1-2.4,2.3
			l-0.1,8.3C1278.2,563,1279.2,564.1,1280.5,564.1z"/>
		<path class="st4" d="M1265.7,563.9l8.3,0.1c1.3,0,2.3-1,2.4-2.3l0.1-8.3c0-1.3-1-2.3-2.3-2.4l-8.3-0.1c-1.3,0-2.3,1-2.4,2.3
			l-0.1,8.3C1263.3,562.8,1264.4,563.9,1265.7,563.9z"/>
		<path class="st4" d="M1250.8,563.7l8.3,0.1c1.3,0,2.3-1,2.4-2.3l0.1-8.3c0-1.3-1-2.3-2.3-2.4l-8.3-0.1c-1.3,0-2.3,1-2.4,2.3
			l-0.1,8.3C1248.5,562.6,1249.5,563.7,1250.8,563.7z"/>
	</g>
</g>
<g id="Lager_2">
</g>
<g>
	<path class="st11" d="M1106.5,680.2l-80-31.5c-3.9-1.5-5.7-5.9-4.2-9.7l42.2-107c1.5-3.9,5.9-5.7,9.7-4.2l80,31.5
		c3.9,1.5,5.7,5.9,4.2,9.7l-42.2,107C1114.7,679.9,1110.4,681.8,1106.5,680.2z"/>
	<path class="st11" d="M1217.6,758.4l-80-31.5c-3.9-1.5-5.7-5.9-4.2-9.7l42.2-107c1.5-3.9,5.9-5.7,9.7-4.2l80,31.5
		c3.9,1.5,5.7,5.9,4.2,9.7l-42.2,107C1225.8,758,1221.4,759.9,1217.6,758.4z"/>
	<g>
		<path class="st3" d="M1111.1,680.1l-74.8-34.5c-3.9-1.8-5.6-6.5-3.8-10.4l45.2-97.9c1.8-3.9,6.5-5.6,10.4-3.8l74.8,34.5
			c3.9,1.8,5.6,6.5,3.8,10.4l-45.2,97.9C1119.7,680.2,1115.1,681.9,1111.1,680.1z"/>
		<path class="st3" d="M1272.1,657.4l-49.6,107.4c-0.6,1.3-2.2,1.9-3.5,1.3l-84.2-38.9c-1.3-0.6-1.9-2.2-1.3-3.5l49.6-107.4
			c0.6-1.3,2.2-1.9,3.5-1.3l84.2,38.9C1272.2,654.5,1272.8,656.1,1272.1,657.4z"/>
		<path class="st7" d="M1169.2,573.1l-18.8,40.8l-89-41.1l18.5-40.1c0.7-1.4,2.3-2,3.8-1.4l84.5,39
			C1169.2,570.8,1169.7,572,1169.2,573.1z"/>
		<path class="st4" d="M1109.4,671.2l-23.9-11c-2.9-1.4-4.2-4.9-2.9-7.8l0,0c1.4-2.9,4.9-4.2,7.8-2.9l23.9,11
			c2.9,1.4,4.2,4.9,2.9,7.8l0,0C1115.8,671.3,1112.3,672.6,1109.4,671.2z"/>
		<path class="st8" d="M1070.4,653.2l-23.9-11c-2.9-1.4-4.2-4.9-2.9-7.8l0,0c1.4-2.9,4.9-4.2,7.8-2.9l23.9,11
			c2.9,1.4,4.2,4.9,2.9,7.8v0C1076.8,653.3,1073.3,654.6,1070.4,653.2z"/>
		<g>
			<path class="st9" d="M1101.2,577.8L1101.2,577.8c-2.9-1.4-4.2-4.9-2.9-7.8l0,0c1.4-2.9,4.9-4.2,7.8-2.9l0,0
				c2.9,1.4,4.2,4.9,2.9,7.8l0,0C1107.6,577.8,1104.2,579.1,1101.2,577.8z"/>
			<path class="st9" d="M1158,579.4L1158,579.4c-2.9-1.4-4.2-4.9-2.9-7.8l0,0c1.4-2.9,4.9-4.2,7.8-2.9l0,0c2.9,1.4,4.2,4.9,2.9,7.8
				v0C1164.4,579.5,1160.9,580.8,1158,579.4z"/>
			<path class="st4" d="M1156.5,729.6L1156.5,729.6c-8-3.7-11.5-13.2-7.8-21.2v0c3.7-8,13.2-11.5,21.2-7.8l0,0
				c8,3.7,11.5,13.2,7.8,21.2v0C1174,729.8,1164.5,733.3,1156.5,729.6z"/>
			<path class="st9" d="M1034.6,644.7L1034.6,644.7c-2.9-1.4-4.2-4.9-2.9-7.8l0,0c1.4-2.9,4.9-4.2,7.8-2.9l0,0
				c2.9,1.4,4.2,4.9,2.9,7.8l0,0C1041,644.8,1037.5,646.1,1034.6,644.7z"/>
			<path class="st9" d="M1126.4,647.8L1126.4,647.8c-2.9-1.4-4.2-4.9-2.9-7.8l0,0c1.4-2.9,4.9-4.2,7.8-2.9l0,0
				c2.9,1.4,4.2,4.9,2.9,7.8l0,0C1132.8,647.9,1129.3,649.2,1126.4,647.8z"/>
		</g>
		<polygon class="st10" points="1134.2,628 1061.4,594.4 1061.4,594.4 1134.2,628 		"/>
		<path class="st4" d="M1069.7,629.2l-8.3-3.8c-1.2-0.5-1.7-1.9-1.1-3.1l3.8-8.3c0.5-1.2,1.9-1.7,3.1-1.1l8.3,3.8
			c1.2,0.5,1.7,1.9,1.1,3.1l-3.8,8.3C1072.3,629.3,1070.9,629.8,1069.7,629.2z"/>
		<path class="st4" d="M1084.1,635.9l-8.3-3.8c-1.2-0.5-1.7-1.9-1.1-3.1l3.8-8.3c0.5-1.2,1.9-1.7,3.1-1.1l8.3,3.8
			c1.2,0.5,1.7,1.9,1.1,3.1l-3.8,8.3C1086.6,635.9,1085.2,636.4,1084.1,635.9z"/>
		<path class="st4" d="M1098.4,642.5l-8.3-3.8c-1.2-0.5-1.7-1.9-1.1-3.1l3.8-8.3c0.5-1.2,1.9-1.7,3.1-1.1l8.3,3.8
			c1.2,0.5,1.7,1.9,1.1,3.1l-3.8,8.3C1101,642.5,1099.6,643,1098.4,642.5z"/>
		<path class="st4" d="M1112.7,649.1l-8.3-3.8c-1.2-0.5-1.7-1.9-1.1-3.1l3.8-8.3c0.5-1.2,1.9-1.7,3.1-1.1l8.3,3.8
			c1.2,0.5,1.7,1.9,1.1,3.1l-3.8,8.3C1115.3,649.2,1113.9,649.7,1112.7,649.1z"/>
		<path class="st4" d="M1230.8,660.4l-40.8-18.9c-2.9-1.4-4.2-4.9-2.9-7.8l0,0c1.4-2.9,4.9-4.2,7.8-2.9l40.8,18.9
			c2.9,1.4,4.2,4.9,2.9,7.8h0C1237.3,660.5,1233.8,661.8,1230.8,660.4z"/>
		<path class="st8" d="M1207.6,666.2l-23.9-11c-2.9-1.4-4.2-4.9-2.9-7.8l0,0c1.4-2.9,4.9-4.2,7.8-2.9l23.9,11
			c2.9,1.4,4.2,4.9,2.9,7.8l0,0C1214.1,666.3,1210.6,667.5,1207.6,666.2z"/>
		<path class="st5" d="M1259.6,684.4l-33.6,72.8c-2.5,5.5-9.1,7.9-14.6,5.4l-19.1-8.8c5.4-1.6,9.1-6.3,4-18.2
			c-10.7-25,17.2-13.9,25.9-7.7c8.7,6.3,10.4-4.1-1.1-17.9c-11.5-13.8,6.5-14,17.3-2.7c10.9,11.3,11.2-6,0.7-18
			C1230.4,679.3,1245.7,671.8,1259.6,684.4z"/>
	</g>
</g>
<g>
	<path class="st12" d="M770.8,856.5c0,0-61-41.1-90.8-77.1c-4-4.8-2.8-12,2.5-15.3l56.2-35.4l92.1,89.3L770.8,856.5z"/>
	<path class="st3" d="M863.7,801.1l-82.9,55.7c-3.6,2.4-8.5,1.5-10.9-2.1l-72.5-107.9c-2.4-3.6-1.5-8.5,2.1-10.9l82.9-55.7
		c3.6-2.4,8.5-1.5,10.9,2.1l72.5,107.9C868.2,793.8,867.3,798.7,863.7,801.1z"/>
	<path class="st7" d="M790.3,677.9l29.5,43.9l-95.9,64.5l-29-43.2c-1-1.5-0.6-3.6,0.9-4.6l91.1-61.2
		C788,676.5,789.5,676.8,790.3,677.9z"/>
	<path class="st13" d="M790.4,678.1l29.4,43.7l-95.9,64.5l-2.9-4.2c-0.6-4.1,0.3-10.3,7.5-16.2c12.7-10.2,21.7-11.7,22.7-21.6
		c1-9.9,3.6-26.6,14.7-32.3C777.1,706.3,790.5,689.4,790.4,678.1z"/>
	<path class="st14" d="M839.7,802.3l-58.2,39.2c-3,2-7,1.2-8.9-1.8l-0.5-0.8c-2-3-1.2-7,1.8-8.9l58.2-39.2c3-2,7-1.2,8.9,1.8
		l0.5,0.8C843.4,796.3,842.6,800.3,839.7,802.3z"/>
	<path class="st8" d="M839,780.9l-67.8,45.6c-3,2-7,1.2-8.9-1.8l-0.5-0.8c-2-3-1.2-7,1.8-8.9l67.8-45.6c3-2,7-1.2,8.9,1.8l0.5,0.8
		C842.8,774.9,842,778.9,839,780.9z"/>
	<path class="st4" d="M787.7,793.5l-26.5,17.9c-3,2-7,1.2-8.9-1.8l-0.5-0.8c-2-3-1.2-7,1.8-8.9L780,782c3-2,7-1.2,8.9,1.8l0.5,0.8
		C791.5,787.5,790.7,791.5,787.7,793.5z"/>
	<g>
		<path class="st15" d="M792.4,762.8l-0.8,0.5c-3,2-7,1.2-8.9-1.8l-0.5-0.8c-2-3-1.2-7,1.8-8.9l0.8-0.5c3-2,7-1.2,8.9,1.8l0.5,0.8
			C796.1,756.8,795.3,760.8,792.4,762.8z"/>
		<path class="st15" d="M806.6,753.2l-0.8,0.5c-3,2-7,1.2-8.9-1.8l-0.5-0.8c-2-3-1.2-7,1.8-8.9l0.8-0.5c3-2,7-1.2,8.9,1.8l0.5,0.8
			C810.4,747.2,809.6,751.2,806.6,753.2z"/>
		<path class="st15" d="M763.8,781.9l-0.8,0.5c-3,2-7,1.2-8.9-1.8l-0.5-0.8c-2-3-1.2-7,1.8-8.9l0.8-0.5c3-2,7-1.2,8.9,1.8l0.5,0.8
			C767.6,776,766.8,780,763.8,781.9z"/>
		<path class="st15" d="M778.1,772.4l-0.8,0.5c-3,2-7,1.2-8.9-1.8l-0.5-0.8c-2-3-1.2-7,1.8-8.9l0.8-0.5c3-2,7-1.2,8.9,1.8l0.5,0.8
			C781.8,766.4,781.1,770.4,778.1,772.4z"/>
	</g>
	<polygon class="st10" points="824.2,746.8 745.8,799.6 745.8,799.6 824.2,746.8 	"/>
	<path class="st4" d="M777.2,726.9L745,748.5c-1.1,0.7-2.5,0.4-3.2-0.6l-6.5-9.6c-0.7-1.1-0.4-2.5,0.6-3.2l32.2-21.6
		c1.1-0.7,2.5-0.4,3.2,0.6l6.5,9.6C778.6,724.7,778.3,726.2,777.2,726.9z"/>
</g>
</svg>
